<svg width="1024" height="1024" viewBox="0 0 1024 1024" fill="none" xmlns="http://www.w3.org/2000/svg">
<rect width="1024" height="1024" rx="150" fill="white"/>
<path d="M545.65 526.335L828.458 876.912V902.977H777.631L494.822 532.852L545.65 526.335ZM270.66 170.545L298.029 150.996V902.977H243.292V121.021H514.371C581.272 121.021 634.706 129.71 674.673 147.087C714.64 163.595 743.746 187.922 761.992 220.069C780.238 252.216 789.36 291.314 789.36 337.363C789.36 383.411 778.934 423.812 758.082 458.566C737.23 492.451 705.951 518.95 664.247 538.065C622.542 557.179 570.846 566.736 509.158 566.736H271.964V517.212H509.158C578.666 517.212 633.403 502.442 673.37 472.902C714.205 442.492 734.623 396.878 734.623 336.059C734.623 297.83 727.673 266.552 713.771 242.225C699.87 217.897 676.411 200.086 643.395 188.791C611.247 176.627 566.067 170.545 507.855 170.545H270.66Z" fill="black"/>
</svg>
