<svg width="68" height="80" viewBox="0 0 68 80" fill="none" xmlns="http://www.w3.org/2000/svg">
<path d="M34.4355 54.5039L41.2266 42.3516C46.707 42.3516 51.1549 42.9076 54.5703 44.0195C57.9857 45.0521 60.5671 46.9583 62.3145 49.7383C64.0618 52.4388 65.2135 56.291 65.7695 61.2949L67.9141 80H45.1582L43.0137 63.4395C42.696 60.4212 41.862 58.1973 40.5117 56.7676C39.2409 55.2585 37.2155 54.5039 34.4355 54.5039ZM35.7461 19.9531H23.7129V35.2031H35.7461C37.5729 35.2031 39.082 34.9251 40.2734 34.3691C41.5443 33.7337 42.4974 32.86 43.1328 31.748C43.8477 30.5566 44.2051 29.127 44.2051 27.459C44.2051 25.0762 43.4505 23.2493 41.9414 21.9785C40.5117 20.6283 38.4466 19.9531 35.7461 19.9531ZM41.2266 45.9258L40.2734 54.5039H23.7129V80H0.480469V0.652344H39.4395C44.9993 0.652344 49.8444 1.60547 53.9746 3.51172C58.1048 5.41797 61.3216 8.11849 63.625 11.6133C65.9284 15.0286 67.0801 19.0794 67.0801 23.7656C67.0801 28.2135 66.0078 32.1055 63.8633 35.4414C61.7188 38.7773 58.7005 41.3587 54.8086 43.1855C50.9167 45.0124 46.3893 45.9258 41.2266 45.9258Z" fill="black"/>
</svg>
